<svg width="864.34" height="1271.8" preserveAspectRatio="xMidYMid" version="1.1" viewBox="0 0 864.34 1271.8" xmlns="http://www.w3.org/2000/svg">
 <defs>
  <filter id="roundify" x="-.0016716" y="-.0011349" width="1.0033" height="1.0023" color-interpolation-filters="sRGB">
   <feGaussianBlur in="SourceAlpha" result="blur" stdDeviation="6"/>
   <feColorMatrix in="blur" result="hard" values="1 0 0 0 0                 0 1 0 0 0                 0 0 1 0 0                 0 0 0 40 -10"/>
   <feComposite in="SourceGraphic" in2="hard" operator="in"/>
  </filter>
 </defs>
 <g transform="matrix(.1 0 0 -.1 -77.641 1454.3)" fill="currentColor" filter="url(#roundify)">
  <path d="m4730 14521c-137-42-229-171-218-305 8-96 73-192 161-238 38-19 69-23 319-34 153-7 339-20 415-29 909-109 1698-489 2328-1119 568-569 904-1217 1029-1986 35-211 46-352 46-567 0-647-157-1250-468-1798-482-850-1368-1521-2322-1760-339-85-535-108-940-109-355-2-367-4-445-81-120-121-114-302 14-417 90-81 101-83 521-83 389 0 456 5 755 61 703 131 1388 457 1970 938 142 117 416 390 534 531 555 666 867 1403 963 2270 20 186 17 733-5 915-54 430-148 791-298 1143-400 935-1165 1730-2114 2197-550 271-1128 427-1745 470-167 11-463 12-500 1z"/>
  <path d="m4763 12474c-478-58-927-273-1266-608-190-187-316-363-432-601-101-206-155-375-202-625-17-90-18-299-20-3680-4-4016-11-3644 70-3736 61-69 125-98 217-99 123 0 214 58 266 169l24 51v5509l113-112c181-180 329-289 542-397 190-97 387-161 620-202 157-27 550-25 710 4 484 89 885 304 1220 654 328 343 526 763 585 1239 13 108 13 420 0 530-78 641-427 1202-971 1560-207 136-505 263-731 310-235 49-517 62-745 34zm517-579c664-102 1186-601 1331-1275 31-141 34-455 5-595-135-674-647-1183-1303-1295-131-23-371-27-499-9-602 84-1126 527-1312 1109-59 185-67 245-67 480 0 241 13 327 82 523 187 541 676 957 1240 1056 136 24 387 27 523 6z"/>
  <path d="m1045 11847c-97-32-168-97-201-183-18-47-19-98-19-1599v-1550l26-55c67-142 218-212 358-165 68 22 151 98 182 167l24 53v1550c0 1501-1 1552-19 1599-24 63-86 131-148 162-59 30-148 39-203 21z"/>
  <path d="m957 7446c-63-31-98-65-133-129l-29-52-3-2590c-2-2930-11-2656 81-2750 89-91 8-85 1203-85 1196 0 1108-7 1205 90 69 68 93 131 87 223-7 110-72 202-177 251-46 21-51 21-938 24l-893 3v2399c0 2378 0 2400-20 2453-44 117-132 179-260 184-63 3-83 0-123-21z"/>
 </g>
</svg>
