<svg width="1006.1" height="1376.9" preserveAspectRatio="xMidYMid" version="1.1" viewBox="0 0 1006.1 1376.9" xmlns="http://www.w3.org/2000/svg">
 <defs>
  <filter id="roundify" x="-.001436" y="-.0010482" width="1.0029" height="1.0021" color-interpolation-filters="sRGB">
   <feGaussianBlur in="SourceAlpha" result="blur" stdDeviation="6"/>
   <feColorMatrix in="blur" result="hard" values="1 0 0 0 0                 0 1 0 0 0                 0 0 1 0 0                 0 0 0 40 -10"/>
   <feComposite in="SourceGraphic" in2="hard" operator="in"/>
  </filter>
 </defs>
 <g transform="matrix(.1 0 0 -.1 -61.743 1488.5)" fill="currentColor" filter="url(#roundify)">
  <path d="m1193.6 7390.4c-66.011-1.0896-170.82-30.749-222.13-57.051-101.52-51.718-210.25-158.22-264.51-256.52l-28.516-51.133a315.55 315.55 0 0 1-39.98-153.34l-3.0078-2590a315.55 315.55 0 0 1 0-0.1563c-0.99977-1464.7-4.049-2123.4 5.3906-2447.9 4.7198-162.24-0.70678-232.49 42.734-352.44 21.721-59.978 80.166-136.66 114.82-165.94 11.202-9.4627 11.588-9.7345 14.512-12.168 14.23-17.022 53.71-63.325 131.29-103.55 90.082-46.714 166.55-53.546 252.38-59.59 128.76-9.0658 312.67-9.692 648.44-9.4336 111.92 0.086 240.72 0.2735 389.96 0.2735 149.35 0 278.73-0.096 391.17-0.098 393.56-0.01 567.54-2.1559 709.16 15.684 70.812 8.9197 154.08 29.411 225.61 76.465 70.785 46.568 94.06 81.99 101.93 90.117-0.4631-0.4606-0.942-0.9097-1.4063-1.3672l1.5625 1.543c111.45 110.98 188.88 311.36 178.85 466.5-14.262 222.33-161.61 424.75-358.44 516.6a315.55 315.55 0 0 1-2.4023 1.1133c-13.456 6.1431-80.438 30.694-127.21 37.441-46.769 6.7476-86.086 8.0947-149.41 9.707-126.66 3.2246-347.83 3.8516-791.33 5.3516a315.55 315.55 0 0 0-0.019 0l-578.54 1.9336v2084.5c0 1189 0.01 1788.3-2.5195 2100.9-1.2633 156.34-2.8431 239.38-6.4844 299.8-3.6369 60.354-23.722 143.45-31.289 163.57-79.879 212.05-318.54 378.87-542.27 387.91-18.373 0.8604-36.854 1.5463-58.359 1.1914z"/>
  <path d="m1283.1 13084c-53.914 1.059-109.65-2.677-177.21-24.786a315.55 315.55 0 0 1-0.7032-0.214c-174.2-57.468-328.56-191.93-396.74-369.61a315.55 315.55 0 0 1-0.0586-0.176c-10.966-28.634-26.779-97.724-30.547-147.73-3.768-50.009-5.2845-110.15-6.5625-215.55-2.556-210.79-2.7734-598-2.7734-1348.6v-1550a315.55 315.55 0 0 1 30.254-134.82l26.016-55c100.03-211.83 311.05-356.76 546.23-360.18 65.38-0.948 132.02 9.1363 196 30.43 197.62 64.327 289.32 155.8 370.84 337.25v0.019l23.613 52.148a315.55 315.55 0 0 1 28.105 130.16v1550c0 750.57-0.2174 1137.8-2.7734 1348.6-1.278 105.4-2.7945 165.54-6.5625 215.55-3.7612 49.92-19.524 118.83-30.488 147.56-61.331 160.8-149.56 255.3-300.72 331.07-93.664 47.425-176.44 62.127-265.92 63.887z"/>
  <path d="m5597.6 12803c-70.638-2.219-140.15-7.24-207.85-15.547-546.93-66.413-1059.4-311.28-1449.4-696.58-210.66-207.39-365.43-423.58-493.95-687.21-111.3-227.11-178.22-437.48-228.52-704.96-33.091-175.29-23.47-357.94-25.469-3738.1-1.9998-2007.8-4.8769-2915.3 3.1836-3345.7 4.0302-215.2 0.818-295.62 31.406-412.6 15.294-58.489 71.933-154.81 119.12-195.27 14.171-12.152 20.173-17.471 21.973-19.082 107.82-103.76 279.11-176.58 423.4-178.14a315.55 315.55 0 0 1 3.4375-0.02c222.19 0 457.62 149.84 551.7 350.64l0.02 0.039 23.75 50.469a315.55 315.55 0 0 1 30.058 134.38v4829.9c62.278-39.235 127.19-75.982 196.33-111.05 218.52-111.52 450.29-186.13 708.46-231.56a315.55 315.55 0 0 1 1.2109-0.2148c246.22-42.344 573.02-40.247 819.75 4.4726a315.55 315.55 0 0 1 0.8008 0.1563c542.41 99.74 1013.5 351.92 1390.9 746.15a315.55 315.55 0 0 1 0.1172 0.098c373.08 390.14 603.26 879.23 670.08 1418.3a315.55 315.55 0 0 1 0.1367 1.094c21.617 179.58 21.24 425.69 0.078 604.75a315.55 315.55 0 0 1-0.1367 1.074c-88.966 731.12-492.06 1378.3-1110.7 1785.5a315.55 315.55 0 0 1-0.1953 0.137c-247.76 162.78-557.09 296.35-839.84 355.18h-0.059c-205.1 42.76-427.48 60.534-639.73 53.867zm89.531-1209.4c84.54 0.983 172.88-4.512 209.69-10.195a315.55 315.55 0 0 1 0.2343-0.04c535.89-82.32 951.46-476.41 1070.4-1029.5a315.55 315.55 0 0 1 0.2929-1.387c10.822-49.22 13.316-419.23 4.1992-463.24a315.55 315.55 0 0 1-0.4101-2.031c-110.84-553.36-520.2-956.06-1046.7-1046a315.55 315.55 0 0 1-1.4648-0.2539c-45.307-7.9546-163.8-16.427-261.48-15.391-58.614 0.622-113.6 4.494-139 8.0664a315.55 315.55 0 0 1-0.332 0.059c-476.43 66.478-907.23 430-1055.1 892.52l-0.019 0.039c-55.437 173.82-52.012 156.19-52.012 383.94 0 229.66 0.5631 237.81 64.082 418.24a315.55 315.55 0 0 1 0.5859 1.68c147.83 427.68 550 769.97 996.35 848.32a315.55 315.55 0 0 1 0.2929 0.04c37.464 6.612 125.78 14.095 210.33 15.078z"/>
  <path d="m5869 14869c-52.614 0.132-101.19-0.421-143.14-1.933-20.979-0.756-40.06-1.684-60.02-3.36-19.96-1.675-28.466 2.388-88.789-15.546a315.55 315.55 0 0 1-2.5586-0.782c-272.25-83.463-464.09-339.04-440-632.48a315.55 315.55 0 0 1 0.039-0.391c18.303-219.64 138.12-391.48 329.28-491.41a315.55 315.55 0 0 1 5.0586-2.578c41.752-20.876 124.96-44.724 187.03-51.465 61.967-6.73 132.93-9.995 258.65-15.527h0.059c146.75-6.716 340.44-21.02 392.11-27.129 844.17-101.29 1560.4-447.1 2142.1-1028.7 527.27-528.24 825.65-1105.3 940.78-1813.6a315.55 315.55 0 0 1 0.1563-1.016c33.033-199.14 41.738-311.11 41.738-515.35 0-595.95-142.44-1141-426.89-1642.3a315.55 315.55 0 0 1-0.059-0.098c-435.31-767.66-1260.6-1393.2-2124.2-1609.6a315.55 315.55 0 0 1-0.059 0c-324.2-81.288-470.74-98.56-864.04-99.531a315.55 315.55 0 0 1-0.996 0c-178.07-1.0032-268.92 2.8895-380.98-17.461s-240.12-111.29-283.91-154.51a315.55 315.55 0 0 1-2.3632-2.3633c-234.45-236.4-219.61-652.05 27.07-873.79 48.863-43.934 180.57-130.1 297.91-148.85 88.061-14.073 169.77-15.507 293.93-15.352 41.385 0.052 87.492 0.2735 140.12 0.2735 391.62 0 509.01 9.454 812.91 66.367 759.29 141.51 1491.2 491.07 2112.9 1004.8 174.16 143.53 431.55 400.26 575.14 571.84a315.55 315.55 0 0 1 0.4101 0.5078c591.06 709.27 932.14 1515.4 1034.2 2437.3a315.55 315.55 0 0 1 0.1 0.9961c27.389 254.71 25.16 733.22-5.468 986.6a315.55 315.55 0 0 1-0.176 1.445c-56.92 453.25-158.92 847.54-320.78 1227.4a315.55 315.55 0 0 1-0.176 0.41c-431.78 1009.3-1248.8 1856-2264.8 2356v0.02c-585.51 288.48-1206.3 455.94-1862.4 501.66a315.55 315.55 0 0 1-1.1914 0.08c-95.076 6.262-213.48 9.17-318.71 9.433z"/>
 </g>
</svg>
